<svg viewBox="0 0 72 72" fill="none" xmlns="http://www.w3.org/2000/svg">
<circle cx="36" cy="36" r="36" fill="#FFFFFF"/>
<path d="M35.9995 19C29.5041 19 24.2191 24.285 24.2191 30.7811C24.2191 32.4755 24.5659 34.0933 25.2493 35.59C28.1948 42.0353 33.842 48.8402 35.503 50.7721C35.6275 50.9165 35.8089 50.9997 35.9998 50.9997C36.1908 50.9997 36.3722 50.9165 36.4966 50.7721C38.157 48.8405 43.8042 42.036 46.7507 35.59C47.4345 34.0933 47.7809 32.4755 47.7809 30.7811C47.7803 24.285 42.4953 19 35.9995 19ZM35.9995 36.9003C32.6254 36.9003 29.88 34.1549 29.88 30.7808C29.88 27.4063 32.6254 24.661 35.9995 24.661C39.3736 24.661 42.119 27.4063 42.119 30.7808C42.1193 34.1549 39.374 36.9003 35.9995 36.9003Z" fill="black"/>
</svg>
