<?xml version="1.0" standalone="no"?>
<!DOCTYPE svg PUBLIC "-//W3C//DTD SVG 20010904//EN"
 "http://www.w3.org/TR/2001/REC-SVG-20010904/DTD/svg10.dtd">
<svg version="1.0" xmlns="http://www.w3.org/2000/svg"
 width="256.000000pt" height="256.000000pt" viewBox="0 0 256.000000 256.000000"
 preserveAspectRatio="xMidYMid meet">
<metadata>
Created by potrace 1.14, written by Peter Selinger 2001-2017
</metadata>
<g transform="translate(0.000000,256.000000) scale(0.100000,-0.100000)"
fill="#000000" stroke="none">
<path d="M1100 2539 c-105 -23 -104 -23 -165 -47 -203 -81 -379 -236 -488
-432 -42 -76 -93 -223 -104 -301 -10 -67 -10 -272 0 -319 4 -19 9 -47 12 -62
22 -113 128 -330 284 -583 186 -300 538 -763 597 -786 39 -14 92 -11 120 8 79
51 563 714 652 893 7 14 22 41 33 60 38 63 127 244 148 300 72 195 75 427 10
630 -91 283 -323 515 -609 610 -113 38 -134 41 -280 44 -93 3 -147 -1 -210
-15z"/>
</g>
</svg>
